<svg xmlns="http://www.w3.org/2000/svg" width="40" height="39.999" viewBox="0 0 40 39.999">
  <g id="cat" transform="translate(0 0)">
    <rect id="Retângulo_186" data-name="Retângulo 186" width="40" height="39.999" transform="translate(0 0)" fill="none" opacity="0"/>
    <g id="Icone_-_Camadas" data-name="Icone - Camadas" transform="translate(-128.209 -371.99)" fill="none">
      <path d="M137.041,386.972l10.68,4.845a1.174,1.174,0,0,0,.976,0l10.68-4.845a1.025,1.025,0,0,0,0-1.836l-10.683-4.85a1.172,1.172,0,0,0-.975,0l-10.677,4.846a1.025,1.025,0,0,0,0,1.836Zm22.336,4.048-2.663-1.208-7.411,3.359a2.641,2.641,0,0,1-2.187,0l-7.411-3.363-2.663,1.207a1.023,1.023,0,0,0,0,1.834l10.68,4.841a1.174,1.174,0,0,0,.976,0l10.68-4.841a1.024,1.024,0,0,0,0-1.834Zm0,5.859-2.653-1.2-7.417,3.364a2.646,2.646,0,0,1-2.187,0l-7.416-3.364-2.663,1.2a1.023,1.023,0,0,0,0,1.834l10.679,4.84a1.172,1.172,0,0,0,.975,0l10.68-4.84a1.024,1.024,0,0,0,0-1.834Z" stroke="none"  />
      <path d="M 148.2057342529297 380.1806945800781 C 148.0393524169922 380.1806945800781 147.8729858398438 380.2161254882812 147.7181854248047 380.2869567871094 L 137.0413818359375 385.1325378417969 C 136.5346069335938 385.3843688964844 136.3274993896484 385.9993896484375 136.5794677734375 386.5060729980469 C 136.6791076660156 386.7068481445312 136.8413543701172 386.8683776855469 137.0413818359375 386.9680786132812 L 137.0413818359375 386.9723205566406 L 147.7210388183594 391.817138671875 C 148.0306396484375 391.9588012695312 148.3865051269531 391.9588012695312 148.6968078613281 391.817138671875 L 159.3765106201172 386.9723205566406 C 159.88330078125 386.7203674316406 160.0896606445312 386.10546875 159.8384552001953 385.5986633300781 C 159.7388153076172 385.3986511230469 159.5765075683594 385.2364196777344 159.3765106201172 385.1367492675781 L 148.6932983398438 380.2869567871094 C 148.5384826660156 380.2161254882812 148.3721008300781 380.1806945800781 148.2057342529297 380.1806945800781 M 139.7047119140625 389.8086242675781 L 137.0413818359375 391.0157165527344 C 136.5346069335938 391.2669982910156 136.3274993896484 391.8812255859375 136.5787353515625 392.387939453125 C 136.6783752441406 392.5879211425781 136.8406677246094 392.7509460449219 137.0413818359375 392.8498840332031 L 147.7210388183594 397.6903991699219 C 148.0306396484375 397.8320617675781 148.3865051269531 397.8320617675781 148.6968078613281 397.6903991699219 L 159.3765106201172 392.8498840332031 C 159.88330078125 392.5993041992188 160.0896606445312 391.9851684570312 159.8391418457031 391.4783630371094 C 159.7395172119141 391.277587890625 159.5772399902344 391.1153564453125 159.3765106201172 391.0157165527344 L 159.3772277832031 391.02001953125 L 156.7139129638672 389.8122253417969 L 149.30322265625 393.171630859375 C 148.6085815429688 393.4876708984375 147.8114318847656 393.4876708984375 147.1160583496094 393.171630859375 L 139.7047119140625 389.8086242675781 M 139.7040100097656 395.6768798828125 L 137.0413818359375 396.8747863769531 C 136.5346069335938 397.1259765625 136.3274993896484 397.7402954101562 136.5787353515625 398.2470092773438 C 136.6783752441406 398.4469909667969 136.8406677246094 398.6100463867188 137.0413818359375 398.7090148925781 L 147.7203369140625 403.5494689941406 C 148.0298767089844 403.6911010742188 148.3857879638672 403.6911010742188 148.6954193115234 403.5494689941406 L 159.3750915527344 398.7090148925781 C 159.8818664550781 398.4584045410156 160.0889434814453 397.8441772460938 159.8377380371094 397.3373718261719 C 159.7380828857422 397.1366882324219 159.5757904052734 396.9744262695312 159.3750915527344 396.8747863769531 L 159.3772277832031 396.8790588378906 L 156.7245788574219 395.6768798828125 L 149.3075256347656 399.04052734375 C 148.6128997802734 399.3558654785156 147.8150024414062 399.3559265136719 147.1203460693359 399.04052734375 L 139.7040100097656 395.6768798828125 M 148.2057342529297 378.1806945800781 C 148.662841796875 378.1806945800781 149.1053924560547 378.2767944335938 149.5212707519531 378.4664001464844 L 160.2685699462891 383.3467102050781 C 160.85400390625 383.6384582519531 161.3370208740234 384.1215209960938 161.6286163330078 384.7068481445312 C 162.3704071044922 386.2034606933594 161.7587280273438 388.0215148925781 160.2668762207031 388.7632141113281 L 160.2027587890625 388.7936706542969 L 159.7818603515625 388.984619140625 L 160.2657623291016 389.2242736816406 C 160.8540802001953 389.5163269042969 161.3388366699219 390.0011291503906 161.6307220458984 390.5894470214844 C 162.3709869384766 392.0869750976562 161.7568054199219 393.9040832519531 160.2629547119141 394.6427001953125 L 160.2021484375 394.6715087890625 L 159.8007049560547 394.8534545898438 L 160.2644348144531 395.0834045410156 C 160.8524169921875 395.3753051757812 161.3370361328125 395.85986328125 161.6290130615234 396.4478149414062 C 161.9884643554688 397.1729431152344 162.0438995361328 397.9930725097656 161.7857818603516 398.7583923339844 C 161.5274810791016 399.5243225097656 160.9861907958984 400.1434936523438 160.2616424560547 400.5017700195312 L 160.2007293701172 400.5306396484375 L 149.5210571289062 405.37109375 C 149.1058654785156 405.5599365234375 148.6641082763672 405.6557006835938 148.2078704833984 405.6557006835938 C 147.7516174316406 405.6557006835938 147.309814453125 405.5599365234375 146.8946533203125 405.37109375 L 136.1568603515625 400.5028076171875 C 135.568115234375 400.2124633789062 135.0821838378906 399.7281188964844 134.7886352539062 399.1389465332031 C 134.4280548095703 398.4116821289062 134.3725433349609 397.5915832519531 134.630615234375 396.8261108398438 C 134.888671875 396.0606994628906 135.4293823242188 395.4415893554688 136.1531677246094 395.0828247070312 L 136.2208099365234 395.0508728027344 L 136.6383056640625 394.863037109375 L 136.1570739746094 394.6437683105469 C 135.5682220458984 394.3534851074219 135.0822296142578 393.8691101074219 134.7886352539062 393.2798767089844 C 134.0462493896484 391.7825927734375 134.6590270996094 389.9646606445312 136.1528778076172 389.2239074707031 L 136.2157745361328 389.1940612792969 L 136.6569671630859 388.9941101074219 L 135.0413818359375 388.2611999511719 L 135.0413818359375 387.8150329589844 C 134.9457702636719 387.6824340820312 134.8608245849609 387.5419921875 134.7879486083984 387.3951416015625 C 134.4287414550781 386.6728515625 134.3725128173828 385.8522644042969 134.6302947998047 385.0859985351562 C 134.8878479003906 384.3204956054688 135.4280242919922 383.700927734375 136.1513214111328 383.3414916992188 L 136.21484375 383.3113098144531 L 146.8916473388672 378.4657287597656 C 147.3070831298828 378.2765808105469 147.7491455078125 378.1806945800781 148.2057342529297 378.1806945800781 Z" stroke="none"  fill="#4e5d66"/>
    </g>
  </g>
</svg>
